<mxfile host="Electron" modified="2023-06-22T18:02:43.537Z" agent="Mozilla/5.0 (Windows NT 10.0; Win64; x64) AppleWebKit/537.36 (KHTML, like Gecko) draw.io/21.5.0 Chrome/112.0.5615.204 Electron/24.5.1 Safari/537.36" etag="gK10WiP08z2ty7dvm2bC" version="21.5.0" type="device">
  <diagram name="Page-1" id="TqGQI4NSx8cJjzXvK0Dk">
    <mxGraphModel dx="1304" dy="962" grid="0" gridSize="10" guides="1" tooltips="1" connect="1" arrows="1" fold="1" page="0" pageScale="1" pageWidth="827" pageHeight="1169" math="0" shadow="0">
      <root>
        <mxCell id="0" />
        <mxCell id="1" parent="0" />
        <mxCell id="rHzp8Ztd_uHAQE5Q2bFE-1" value="" style="whiteSpace=wrap;html=1;aspect=fixed;fontSize=16;" vertex="1" parent="1">
          <mxGeometry x="-103" y="-84" width="617" height="617" as="geometry" />
        </mxCell>
        <mxCell id="rHzp8Ztd_uHAQE5Q2bFE-2" value="管理员&lt;br&gt;" style="shape=umlActor;verticalLabelPosition=bottom;verticalAlign=top;html=1;outlineConnect=0;fontSize=16;" vertex="1" parent="1">
          <mxGeometry x="-197" y="295" width="57" height="95" as="geometry" />
        </mxCell>
        <mxCell id="rHzp8Ztd_uHAQE5Q2bFE-3" value="用户" style="shape=umlActor;verticalLabelPosition=bottom;verticalAlign=top;html=1;outlineConnect=0;fontSize=16;" vertex="1" parent="1">
          <mxGeometry x="-197" y="2" width="57" height="95" as="geometry" />
        </mxCell>
        <mxCell id="rHzp8Ztd_uHAQE5Q2bFE-5" style="edgeStyle=none;curved=1;rounded=0;orthogonalLoop=1;jettySize=auto;html=1;fontSize=12;startSize=8;endSize=8;strokeColor=none;" edge="1" parent="1" source="rHzp8Ztd_uHAQE5Q2bFE-4" target="rHzp8Ztd_uHAQE5Q2bFE-2">
          <mxGeometry relative="1" as="geometry" />
        </mxCell>
        <mxCell id="rHzp8Ztd_uHAQE5Q2bFE-4" value="数据库维护" style="ellipse;whiteSpace=wrap;html=1;fontSize=16;" vertex="1" parent="1">
          <mxGeometry x="-8" y="332" width="120" height="80" as="geometry" />
        </mxCell>
        <mxCell id="rHzp8Ztd_uHAQE5Q2bFE-6" value="" style="endArrow=none;html=1;rounded=0;fontSize=12;startSize=8;endSize=8;curved=1;entryX=0;entryY=0.5;entryDx=0;entryDy=0;" edge="1" parent="1" source="rHzp8Ztd_uHAQE5Q2bFE-2" target="rHzp8Ztd_uHAQE5Q2bFE-4">
          <mxGeometry width="50" height="50" relative="1" as="geometry">
            <mxPoint x="31" y="242" as="sourcePoint" />
            <mxPoint x="81" y="192" as="targetPoint" />
          </mxGeometry>
        </mxCell>
        <mxCell id="rHzp8Ztd_uHAQE5Q2bFE-7" value="服务端维护" style="ellipse;whiteSpace=wrap;html=1;fontSize=16;" vertex="1" parent="1">
          <mxGeometry x="-3" y="433" width="120" height="80" as="geometry" />
        </mxCell>
        <mxCell id="rHzp8Ztd_uHAQE5Q2bFE-8" value="" style="endArrow=none;html=1;rounded=0;fontSize=12;startSize=8;endSize=8;curved=1;entryX=0;entryY=0.5;entryDx=0;entryDy=0;" edge="1" parent="1" source="rHzp8Ztd_uHAQE5Q2bFE-2" target="rHzp8Ztd_uHAQE5Q2bFE-7">
          <mxGeometry width="50" height="50" relative="1" as="geometry">
            <mxPoint x="-130" y="346" as="sourcePoint" />
            <mxPoint x="33" y="308" as="targetPoint" />
          </mxGeometry>
        </mxCell>
        <mxCell id="rHzp8Ztd_uHAQE5Q2bFE-9" value="登录" style="ellipse;whiteSpace=wrap;html=1;fontSize=16;" vertex="1" parent="1">
          <mxGeometry x="-44" y="-78" width="120" height="80" as="geometry" />
        </mxCell>
        <mxCell id="rHzp8Ztd_uHAQE5Q2bFE-10" value="" style="endArrow=none;html=1;rounded=0;fontSize=12;startSize=8;endSize=8;curved=1;entryX=0;entryY=0.5;entryDx=0;entryDy=0;" edge="1" parent="1" source="rHzp8Ztd_uHAQE5Q2bFE-3" target="rHzp8Ztd_uHAQE5Q2bFE-9">
          <mxGeometry width="50" height="50" relative="1" as="geometry">
            <mxPoint x="-83" y="31" as="sourcePoint" />
            <mxPoint x="-33" y="-19" as="targetPoint" />
          </mxGeometry>
        </mxCell>
        <mxCell id="rHzp8Ztd_uHAQE5Q2bFE-11" value="注册" style="ellipse;whiteSpace=wrap;html=1;fontSize=16;" vertex="1" parent="1">
          <mxGeometry x="-44" y="14" width="120" height="80" as="geometry" />
        </mxCell>
        <mxCell id="rHzp8Ztd_uHAQE5Q2bFE-12" value="" style="endArrow=none;html=1;rounded=0;fontSize=12;startSize=8;endSize=8;curved=1;entryX=0;entryY=0.5;entryDx=0;entryDy=0;exitX=1;exitY=0.3333333333333333;exitDx=0;exitDy=0;exitPerimeter=0;" edge="1" parent="1" target="rHzp8Ztd_uHAQE5Q2bFE-11" source="rHzp8Ztd_uHAQE5Q2bFE-3">
          <mxGeometry width="50" height="50" relative="1" as="geometry">
            <mxPoint x="-140" y="128" as="sourcePoint" />
            <mxPoint x="-33" y="74" as="targetPoint" />
          </mxGeometry>
        </mxCell>
        <mxCell id="rHzp8Ztd_uHAQE5Q2bFE-13" value="选择牌桌" style="ellipse;whiteSpace=wrap;html=1;fontSize=16;" vertex="1" parent="1">
          <mxGeometry x="-44" y="109" width="120" height="80" as="geometry" />
        </mxCell>
        <mxCell id="rHzp8Ztd_uHAQE5Q2bFE-16" value="与牌交互" style="ellipse;whiteSpace=wrap;html=1;fontSize=16;" vertex="1" parent="1">
          <mxGeometry x="-44" y="203" width="120" height="80" as="geometry" />
        </mxCell>
        <mxCell id="rHzp8Ztd_uHAQE5Q2bFE-17" value="" style="endArrow=none;html=1;rounded=0;fontSize=12;startSize=8;endSize=8;curved=1;entryX=0;entryY=0.5;entryDx=0;entryDy=0;" edge="1" parent="1" source="rHzp8Ztd_uHAQE5Q2bFE-3" target="rHzp8Ztd_uHAQE5Q2bFE-13">
          <mxGeometry width="50" height="50" relative="1" as="geometry">
            <mxPoint x="-128" y="179" as="sourcePoint" />
            <mxPoint x="-78" y="129" as="targetPoint" />
          </mxGeometry>
        </mxCell>
        <mxCell id="rHzp8Ztd_uHAQE5Q2bFE-18" value="" style="endArrow=none;html=1;rounded=0;fontSize=12;startSize=8;endSize=8;curved=1;entryX=0;entryY=0.5;entryDx=0;entryDy=0;exitX=1;exitY=1;exitDx=0;exitDy=0;exitPerimeter=0;" edge="1" parent="1" source="rHzp8Ztd_uHAQE5Q2bFE-3" target="rHzp8Ztd_uHAQE5Q2bFE-16">
          <mxGeometry width="50" height="50" relative="1" as="geometry">
            <mxPoint x="-183" y="267" as="sourcePoint" />
            <mxPoint x="-133" y="217" as="targetPoint" />
          </mxGeometry>
        </mxCell>
        <mxCell id="rHzp8Ztd_uHAQE5Q2bFE-19" value="访问数据库" style="ellipse;whiteSpace=wrap;html=1;fontSize=16;" vertex="1" parent="1">
          <mxGeometry x="265" y="-23" width="120" height="80" as="geometry" />
        </mxCell>
        <mxCell id="rHzp8Ztd_uHAQE5Q2bFE-20" value="" style="endArrow=classic;html=1;rounded=0;fontSize=12;startSize=8;endSize=8;curved=1;entryX=0;entryY=0.5;entryDx=0;entryDy=0;exitX=1;exitY=0.5;exitDx=0;exitDy=0;dashed=1;" edge="1" parent="1" source="rHzp8Ztd_uHAQE5Q2bFE-9" target="rHzp8Ztd_uHAQE5Q2bFE-19">
          <mxGeometry width="50" height="50" relative="1" as="geometry">
            <mxPoint x="31" y="173" as="sourcePoint" />
            <mxPoint x="81" y="123" as="targetPoint" />
          </mxGeometry>
        </mxCell>
        <mxCell id="rHzp8Ztd_uHAQE5Q2bFE-21" value="&amp;lt;&amp;lt;include&amp;gt;&amp;gt;" style="edgeLabel;html=1;align=center;verticalAlign=middle;resizable=0;points=[];fontSize=16;" vertex="1" connectable="0" parent="rHzp8Ztd_uHAQE5Q2bFE-20">
          <mxGeometry x="-0.2527" y="-1" relative="1" as="geometry">
            <mxPoint x="12" y="1" as="offset" />
          </mxGeometry>
        </mxCell>
        <mxCell id="rHzp8Ztd_uHAQE5Q2bFE-22" value="" style="endArrow=classic;html=1;rounded=0;fontSize=12;startSize=8;endSize=8;curved=1;entryX=0;entryY=0.5;entryDx=0;entryDy=0;exitX=1;exitY=0.5;exitDx=0;exitDy=0;dashed=1;" edge="1" parent="1" source="rHzp8Ztd_uHAQE5Q2bFE-11" target="rHzp8Ztd_uHAQE5Q2bFE-19">
          <mxGeometry width="50" height="50" relative="1" as="geometry">
            <mxPoint x="86" y="-28" as="sourcePoint" />
            <mxPoint x="294" y="-10" as="targetPoint" />
          </mxGeometry>
        </mxCell>
        <mxCell id="rHzp8Ztd_uHAQE5Q2bFE-23" value="&amp;lt;&amp;lt;include&amp;gt;&amp;gt;" style="edgeLabel;html=1;align=center;verticalAlign=middle;resizable=0;points=[];fontSize=16;" vertex="1" connectable="0" parent="rHzp8Ztd_uHAQE5Q2bFE-22">
          <mxGeometry x="-0.2527" y="-1" relative="1" as="geometry">
            <mxPoint x="12" y="1" as="offset" />
          </mxGeometry>
        </mxCell>
        <mxCell id="rHzp8Ztd_uHAQE5Q2bFE-24" value="前后端交互" style="ellipse;whiteSpace=wrap;html=1;fontSize=16;" vertex="1" parent="1">
          <mxGeometry x="265" y="153" width="120" height="80" as="geometry" />
        </mxCell>
        <mxCell id="rHzp8Ztd_uHAQE5Q2bFE-25" value="" style="endArrow=classic;html=1;rounded=0;fontSize=12;startSize=8;endSize=8;curved=1;entryX=0;entryY=0.5;entryDx=0;entryDy=0;exitX=1;exitY=0.5;exitDx=0;exitDy=0;dashed=1;" edge="1" parent="1" source="rHzp8Ztd_uHAQE5Q2bFE-13" target="rHzp8Ztd_uHAQE5Q2bFE-24">
          <mxGeometry width="50" height="50" relative="1" as="geometry">
            <mxPoint x="96" y="-18" as="sourcePoint" />
            <mxPoint x="304" as="targetPoint" />
          </mxGeometry>
        </mxCell>
        <mxCell id="rHzp8Ztd_uHAQE5Q2bFE-26" value="&amp;lt;&amp;lt;include&amp;gt;&amp;gt;" style="edgeLabel;html=1;align=center;verticalAlign=middle;resizable=0;points=[];fontSize=16;" vertex="1" connectable="0" parent="rHzp8Ztd_uHAQE5Q2bFE-25">
          <mxGeometry x="-0.2527" y="-1" relative="1" as="geometry">
            <mxPoint x="12" y="1" as="offset" />
          </mxGeometry>
        </mxCell>
        <mxCell id="rHzp8Ztd_uHAQE5Q2bFE-27" value="" style="endArrow=classic;html=1;rounded=0;fontSize=12;startSize=8;endSize=8;curved=1;entryX=0;entryY=0.5;entryDx=0;entryDy=0;exitX=1;exitY=0.5;exitDx=0;exitDy=0;dashed=1;" edge="1" parent="1" source="rHzp8Ztd_uHAQE5Q2bFE-16" target="rHzp8Ztd_uHAQE5Q2bFE-24">
          <mxGeometry width="50" height="50" relative="1" as="geometry">
            <mxPoint x="106" y="-8" as="sourcePoint" />
            <mxPoint x="314" y="10" as="targetPoint" />
          </mxGeometry>
        </mxCell>
        <mxCell id="rHzp8Ztd_uHAQE5Q2bFE-28" value="&amp;lt;&amp;lt;include&amp;gt;&amp;gt;" style="edgeLabel;html=1;align=center;verticalAlign=middle;resizable=0;points=[];fontSize=16;" vertex="1" connectable="0" parent="rHzp8Ztd_uHAQE5Q2bFE-27">
          <mxGeometry x="-0.2527" y="-1" relative="1" as="geometry">
            <mxPoint x="12" y="1" as="offset" />
          </mxGeometry>
        </mxCell>
      </root>
    </mxGraphModel>
  </diagram>
</mxfile>
